<?xml version="1.0" standalone="no"?>
<!DOCTYPE svg PUBLIC "-//W3C//DTD SVG 20010904//EN"
 "http://www.w3.org/TR/2001/REC-SVG-20010904/DTD/svg10.dtd">
<svg version="1.0" xmlns="http://www.w3.org/2000/svg"
 width="16.000000pt" height="16.000000pt" viewBox="0 0 16.000000 16.000000"
 preserveAspectRatio="xMidYMid meet">
<metadata>
Created by potrace 1.11, written by Peter Selinger 2001-2013
</metadata>
<g transform="translate(0.000000,16.000000) scale(0.001563,-0.001563)"
fill="#000000" stroke="none">
<path d="M4905 10114 c-413 -25 -717 -71 -1070 -164 -1179 -308 -2218 -1059
-2899 -2098 -456 -694 -717 -1452 -797 -2312 -16 -174 -16 -666 0 -840 90
-971 421 -1835 993 -2592 266 -352 624 -711 977 -977 756 -571 1620 -902 2591
-992 174 -16 666 -16 840 0 663 61 1212 214 1785 496 807 397 1471 981 1970
1735 458 692 726 1465 806 2330 16 174 16 666 0 840 -80 860 -341 1618 -797
2312 -195 298 -369 513 -623 771 -834 848 -1905 1359 -3088 1472 -154 15 -569
26 -688 19z m384 -2263 c750 -129 1382 -530 1800 -1141 618 -902 627 -2102 24
-3009 -438 -658 -1114 -1079 -1903 -1187 -172 -24 -520 -24 -690 -1 -509 71
-955 263 -1360 587 -510 408 -857 1019 -962 1695 -27 171 -32 567 -10 725 68
479 240 904 516 1274 455 610 1102 980 1881 1076 39 5 185 7 325 5 204 -2 280
-7 379 -24z"/>
<path d="M5330 7435 c-96 -18 -237 -88 -312 -155 -185 -165 -259 -432 -186
-670 33 -107 77 -179 163 -266 64 -64 97 -90 165 -123 193 -94 388 -94 580 0
67 33 102 60 166 123 203 203 249 482 122 745 -76 159 -237 290 -412 335 -88
23 -200 28 -286 11z"/>
<path d="M3662 7130 c-145 -27 -301 -119 -395 -235 -165 -205 -189 -490 -60
-725 55 -99 171 -209 274 -259 263 -126 541 -80 744 124 204 203 250 481 123
744 -32 68 -57 101 -122 166 -88 87 -158 130 -270 164 -80 25 -217 34 -294 21z"/>
<path d="M6461 6139 c-363 -55 -612 -415 -536 -774 40 -187 177 -364 346 -445
259 -124 539 -79 739 119 207 205 254 488 125 749 -123 248 -400 392 -674 351z"/>
<path d="M4761 5769 c-213 -38 -395 -201 -461 -414 -27 -86 -29 -231 -5 -319
54 -201 222 -369 421 -420 78 -20 222 -21 298 -1 324 84 515 429 416 749 -55
176 -211 332 -389 386 -76 24 -205 33 -280 19z m264 -232 c79 -37 156 -114
192 -191 25 -54 28 -72 28 -161 0 -93 -2 -105 -33 -167 -127 -259 -486 -292
-657 -60 -105 141 -95 352 22 482 84 94 173 131 303 127 69 -2 97 -8 145 -30z"/>
<path d="M3125 5524 c-11 -2 -45 -9 -75 -15 -30 -6 -93 -29 -139 -51 -118 -56
-230 -168 -290 -288 -94 -192 -94 -387 0 -580 87 -176 259 -306 459 -346 360
-72 706 180 760 554 44 299 -145 598 -439 695 -78 26 -226 43 -276 31z"/>
<path d="M5894 4531 c-141 -23 -253 -80 -361 -186 -65 -64 -89 -97 -122 -164
-55 -115 -75 -209 -68 -331 9 -164 67 -297 184 -415 312 -316 845 -231 1036
166 57 118 71 188 65 326 -8 172 -65 299 -190 423 -76 75 -185 138 -283 164
-77 19 -195 27 -261 17z"/>
<path d="M4235 4224 c-11 -2 -45 -9 -75 -15 -93 -18 -212 -82 -290 -155 -86
-81 -133 -151 -173 -257 -29 -76 -31 -92 -31 -212 -1 -110 3 -141 22 -200 93
-281 365 -469 652 -452 170 11 341 92 450 215 58 65 123 189 145 277 20 77 20
233 0 310 -47 185 -169 337 -337 420 -122 60 -268 88 -363 69z"/>
</g>
</svg>
